# xmcd CD database file
#
# Track frame offsets:
#	150
#	19669
#	40226
#	57615
#	80735
#	99575
#	137607
#	162671
#	184284
#	212768
#	239255
#	264069
#
# Disc length: 4025 seconds
#
# Revision: 0
# Processed by: cddbd v1.5.2PL0 Copyright (c) Steve Scherf et al.
# Submitted via: CDex 2.14
#
DISCID=a70fb70c
DTITLE=THE GREAT ELLINGTONIANS - CD 2
DYEAR=1960
DGENRE=Jazz
TTITLE0=Snowstorm
TTITLE1=Blues In Bones
TTITLE2=Sunday
TTITLE3=Our Delight
TTITLE4=Out Nowhere
TTITLE5=Swallowing The Blues
TTITLE6=London Broil
TTITLE7=Midnight Sun
TTITLE8=Squeeze Me
TTITLE9=Blues Sides
TTITLE10=Jeeps Blues
TTITLE11=You Can Depend On Me
EXTD=YEAR: 1960
EXTT0=
EXTT1=
EXTT2=
EXTT3=
EXTT4=
EXTT5=
EXTT6=
EXTT7=
EXTT8=
EXTT9=
EXTT10=
EXTT11=
PLAYORDER=
